<svg width="540" height="540" viewBox="0 0 540 540" fill="none" xmlns="http://www.w3.org/2000/svg">
<rect width="540" height="540" rx="270" fill="#00B050"/>
<path d="M98.8453 194.732L109.977 197.919L108.385 203.478C108.384 203.481 108.383 203.487 108.381 203.494C108.375 203.516 108.364 203.557 108.348 203.616C108.317 203.733 108.267 203.923 108.204 204.179C108.076 204.694 107.892 205.481 107.681 206.505C107.26 208.555 106.738 211.55 106.359 215.234C105.598 222.628 105.427 232.655 107.712 243.337C109.989 253.985 114.69 265.222 123.645 275.232C132.586 285.226 146.023 294.283 166.229 300.206L171.785 301.834L168.528 312.946L162.972 311.317C140.966 304.867 125.574 294.754 115.015 282.952C104.472 271.167 99.0031 257.984 96.3883 245.758C93.7805 233.566 93.9945 222.263 94.8404 214.048C95.2647 209.928 95.8521 206.548 96.3395 204.174C96.5833 202.987 96.8027 202.048 96.9654 201.391C97.0467 201.063 97.1146 200.805 97.1637 200.622C97.1881 200.531 97.2073 200.457 97.2223 200.403C97.2297 200.376 97.2369 200.353 97.2418 200.336C97.2442 200.327 97.2469 200.319 97.2486 200.313C97.2495 200.31 97.2506 200.304 97.2506 200.304L97.9635 200.504C98.6649 200.703 100.056 201.101 102.818 201.891L97.2525 200.298L98.8453 194.732Z" fill="#003300"/>
<path d="M120.779 192.063L120.781 192.068C120.783 192.078 120.786 192.1 120.794 192.132C120.808 192.2 120.835 192.315 120.873 192.473C120.949 192.791 121.073 193.287 121.254 193.933C121.617 195.228 122.206 197.126 123.086 199.431C124.85 204.056 127.76 210.25 132.316 216.516C141.333 228.918 156.87 241.757 183.545 243.264L189.324 243.59L188.671 255.15L182.89 254.824C152.152 253.087 133.634 238.019 122.95 223.325C117.656 216.044 114.303 208.891 112.268 203.558C111.248 200.886 110.551 198.651 110.105 197.058C109.882 196.261 109.721 195.622 109.613 195.169C109.559 194.942 109.517 194.761 109.488 194.63C109.473 194.564 109.461 194.509 109.453 194.468C109.448 194.448 109.445 194.431 109.442 194.417C109.441 194.41 109.44 194.403 109.439 194.398C109.438 194.395 109.437 194.39 109.437 194.39L115.109 193.23L109.436 194.384L108.281 188.711L119.628 186.403L120.779 192.063Z" fill="#003300"/>
<path d="M250.566 168.067L254.131 172.628L249.57 176.194C254.077 172.671 254.132 172.629 254.134 172.631L254.137 172.635C254.14 172.639 254.144 172.643 254.148 172.648C254.156 172.658 254.167 172.673 254.18 172.69C254.207 172.725 254.245 172.775 254.294 172.838C254.39 172.964 254.529 173.145 254.705 173.378C255.056 173.843 255.556 174.518 256.171 175.368C257.398 177.067 259.087 179.485 260.952 182.384C264.646 188.129 269.18 195.996 272.112 204.025C274.925 211.73 276.848 221.138 273.167 228.945C269.127 237.51 259.808 241.537 246.418 241.492C228.839 241.432 218.084 232.16 218.651 220.748C218.917 215.4 221.933 210.446 227.1 207.938C232.255 205.437 238.645 205.76 245.248 208.81L250.504 211.238L245.647 221.749L240.392 219.321C236.002 217.293 233.364 217.769 232.156 218.355C230.962 218.935 230.281 220.006 230.215 221.322C230.12 223.24 232.167 229.864 246.457 229.913C257.959 229.952 261.479 226.581 262.694 224.005C264.266 220.669 263.861 215.189 261.235 207.997C258.727 201.128 254.71 194.085 251.212 188.646C249.482 185.954 247.914 183.711 246.785 182.147C246.221 181.366 245.767 180.757 245.46 180.349C245.306 180.146 245.189 179.992 245.113 179.892C245.075 179.843 245.046 179.806 245.029 179.784C245.02 179.773 245.014 179.766 245.01 179.761L245.009 179.759L241.444 175.198L250.566 168.067Z" fill="#003300"/>
<path d="M169.575 159.347C185.069 156.757 206.087 157.873 228.129 172.354L232.966 175.534L226.609 185.211L221.771 182.031C202.594 169.431 184.648 168.568 171.485 170.768C164.862 171.875 159.43 173.765 155.677 175.368C153.805 176.167 152.362 176.891 151.411 177.399C150.936 177.653 150.584 177.852 150.364 177.98C150.254 178.044 150.177 178.091 150.134 178.117L150.096 178.14L145.211 181.218L139.04 171.421L143.938 168.335L146.827 172.921C143.938 168.335 143.941 168.333 143.944 168.332L143.95 168.328C143.954 168.325 143.96 168.321 143.965 168.318C143.976 168.311 143.99 168.302 144.005 168.293C144.037 168.273 144.078 168.249 144.127 168.219C144.225 168.16 144.36 168.079 144.529 167.98C144.867 167.783 145.345 167.511 145.954 167.186C147.171 166.536 148.917 165.664 151.129 164.719C155.547 162.833 161.87 160.635 169.575 159.347Z" fill="#003300"/>
<path d="M233.624 97.652L227.89 98.4606C184.159 104.632 158.202 123.696 143.166 140.923C135.61 149.579 130.758 157.839 127.807 163.891C126.333 166.915 125.337 169.381 124.718 171.058C124.41 171.896 124.194 172.536 124.062 172.95C123.996 173.156 123.951 173.306 123.924 173.395L123.898 173.484L123.897 173.483L122.357 179.059L111.197 175.973L112.74 170.392L118.32 171.936C112.75 170.396 112.741 170.389 112.742 170.385C112.742 170.385 112.743 170.379 112.744 170.377C112.746 170.37 112.748 170.362 112.751 170.354C112.755 170.337 112.761 170.316 112.768 170.292C112.782 170.242 112.802 170.175 112.826 170.094C112.874 169.932 112.943 169.705 113.034 169.423C113.215 168.856 113.484 168.056 113.854 167.053C114.594 165.047 115.739 162.221 117.399 158.817C120.718 152.011 126.107 142.859 134.443 133.308C151.191 114.121 179.616 93.581 226.273 86.9968L232.005 86.1862L233.624 97.652Z" fill="#003300"/>
<path d="M285.878 62.6022C291.532 62.4959 299.294 62.8352 307.62 64.6608C324.312 68.3211 343.91 78.172 352.399 102.775L354.288 108.248L343.342 112.024L341.454 106.551C334.74 87.0924 319.492 79.1185 305.139 75.9714C297.943 74.3936 291.133 74.0837 286.095 74.1784C283.588 74.2256 281.546 74.3724 280.152 74.5046C279.456 74.5706 278.923 74.6336 278.576 74.6774C278.403 74.6992 278.276 74.7163 278.199 74.7272C278.161 74.7325 278.134 74.7359 278.121 74.738C278.116 74.7386 278.11 74.7399 278.11 74.7399L278.111 74.7389L272.396 75.6218L270.629 64.1794L276.35 63.2956L277.216 68.8991C276.367 63.3973 276.354 63.2968 276.356 63.2946L276.379 63.2907C276.392 63.2888 276.408 63.2867 276.427 63.2839C276.466 63.2781 276.519 63.2705 276.584 63.2614C276.713 63.2431 276.895 63.2191 277.125 63.1901C277.583 63.1322 278.236 63.0552 279.058 62.9772C280.703 62.8212 283.04 62.6556 285.878 62.6022Z" fill="#003300"/>
<path fill-rule="evenodd" clip-rule="evenodd" d="M222.923 49.4509C255.058 34.2585 298.702 25.5851 341.735 53.9919L342.722 54.6501C363.373 68.5783 378.183 87.9646 387.083 109.301L389.341 114.718L383.895 116.903C379.686 118.592 374.302 120.561 368.171 122.703C369.557 123.731 371.079 124.882 372.715 126.154C380.878 132.497 391.946 141.865 403.617 154.005C409.706 160.339 415.98 167.452 422.102 175.304L495.921 226.63L466.876 256.131C471.116 257.887 474.813 260.91 477.414 265.18L477.768 265.181L479.225 268.791C481.492 274.407 481.989 280.789 482.01 285.417C482.022 287.796 481.905 289.858 481.787 291.333C481.727 292.072 481.667 292.671 481.62 293.094C481.596 293.305 481.576 293.474 481.561 293.595C481.554 293.656 481.546 293.705 481.542 293.742C481.539 293.76 481.537 293.775 481.536 293.787C481.535 293.792 481.534 293.798 481.534 293.802L481.533 293.809V293.811L475.797 293.021L481.532 293.814L480.651 300.192L474.417 298.643L474.421 298.645C474.421 298.645 474.418 298.644 474.412 298.642C474.397 298.639 474.363 298.631 474.313 298.62C474.213 298.597 474.044 298.561 473.815 298.516C473.478 298.451 473.014 298.37 472.444 298.287L471.84 298.204C472.234 303.802 472.409 310.623 472.433 317.133C472.47 326.851 472.174 336.547 471.649 341.308C470.156 354.854 467.115 367.155 460.486 376.727C453.668 386.572 443.469 392.949 429.011 395.315L428.879 395.337L428.747 395.352L386.761 400.246C384.993 400.494 383.22 400.688 381.448 400.832C380.604 433.075 382.945 456.432 385.527 471.803C386.882 479.872 388.304 485.744 389.368 489.55C389.899 491.453 390.341 492.841 390.641 493.728C390.791 494.172 390.906 494.491 390.978 494.687C391.014 494.785 391.039 494.852 391.053 494.889L391.062 494.913C391.052 494.915 390.826 495.002 385.682 497.051C380.327 499.185 380.303 499.192 380.302 499.189L380.3 499.183C380.299 499.179 380.296 499.175 380.295 499.171C380.291 499.161 380.286 499.149 380.281 499.135C380.27 499.108 380.257 499.073 380.241 499.031C380.208 498.946 380.165 498.831 380.111 498.685C380.003 498.393 379.855 497.976 379.672 497.435C379.307 496.353 378.803 494.768 378.215 492.667C377.041 488.463 375.53 482.19 374.108 473.721C371.531 458.38 369.249 435.843 369.771 405.346C369.248 405.488 368.697 405.564 368.129 405.564C364.999 405.564 362.398 403.269 361.917 400.273C356.438 399.495 351.105 398.183 346.042 396.334C346.506 397.211 346.771 398.21 346.771 399.271C346.771 402.741 343.952 405.564 340.482 405.564C337.008 405.564 334.185 402.741 334.185 399.271C334.185 396.389 336.131 393.956 338.78 393.213C328.629 388.147 319.977 380.637 314.025 370.64L323.974 364.716L324.507 365.59C324.527 365.62 324.548 365.65 324.567 365.681C325.22 365.451 325.923 365.325 326.654 365.325L326.977 365.334C330.299 365.503 332.949 368.257 332.949 371.62C332.949 372.75 332.646 373.81 332.123 374.727C344.908 386.532 364.654 391.677 385.244 388.767L385.314 388.758L385.383 388.75L427.232 383.872C438.941 381.936 446.17 377.061 450.966 370.135C455.963 362.919 458.721 352.903 460.139 340.039L460.221 339.219C460.504 336.14 460.715 330.985 460.805 325.048L460.837 322.459C457.775 323.361 454.39 323.379 450.587 322.528C450.634 322.746 450.684 322.968 450.741 323.194L439.51 326.013C439.038 324.132 438.783 322.348 438.703 320.664C433.804 324.551 428.555 326.615 423.633 327.539C418.867 328.433 414.604 328.227 411.546 327.809C410.008 327.599 408.746 327.331 407.842 327.107C407.39 326.995 407.024 326.893 406.755 326.814C406.621 326.775 406.51 326.74 406.425 326.714C406.383 326.7 406.347 326.689 406.317 326.679C406.302 326.675 406.289 326.669 406.278 326.665C406.273 326.663 406.267 326.661 406.262 326.66C406.26 326.659 406.254 326.657 406.254 326.657C406.256 326.643 406.331 326.413 407.715 322.317L407.714 322.316L406.249 326.655L407.132 322.101C405.934 321.586 404.926 320.711 404.248 319.611C405.851 319.278 407.049 318.982 407.775 318.794L408.436 315.391L408.949 315.406C411.472 315.405 413.405 314.249 415.44 311.23C417.829 307.685 419.7 302.437 421.724 295.884C423.645 289.665 425.69 282.327 428.449 275.936C431.206 269.551 435.071 263.109 441.276 259.171C444.007 257.437 446.945 256.138 449.957 255.32C447.593 246.059 444.495 237.22 440.862 228.828C439.528 235.154 436.46 240.889 431.321 245.075L430.943 245.376C422.804 251.761 412.173 252.37 402.241 249.281C392.281 246.183 382.419 239.247 374.722 229.434C369.214 222.412 365.403 214.664 363.447 207.01L363.263 206.27C362.967 206.45 362.678 206.629 362.395 206.805C360.139 208.214 358.336 209.492 357.106 210.409C356.492 210.867 356.022 211.235 355.712 211.482C355.558 211.606 355.443 211.7 355.37 211.759C355.334 211.789 355.308 211.811 355.293 211.824C355.285 211.83 355.28 211.834 355.278 211.836C355.272 211.827 355.148 211.678 352.786 208.888L352.705 208.793L285.245 247.584C287.54 252.662 290.951 256.96 294.204 260.256C296.253 262.332 298.168 263.938 299.556 265.014C300.248 265.551 300.804 265.951 301.171 266.208C301.355 266.336 301.491 266.43 301.574 266.485C301.612 266.511 301.64 266.528 301.655 266.538L301.661 266.542L301.665 266.544L301.668 266.546L308.291 270.777L302.266 275.846C298.016 279.423 293.782 282.173 289.58 284.174C290.743 285.318 291.467 286.908 291.467 288.665C291.467 292.134 288.647 294.957 285.177 294.958C281.706 294.958 278.883 292.135 278.882 288.665C278.882 288.336 278.907 288.013 278.956 287.698C278.489 287.786 278.024 287.867 277.558 287.938C269.451 289.173 261.948 287.73 255.264 284.862C248.694 282.043 242.819 277.804 237.734 273.24C236.874 273.19 235.608 273.156 234.064 273.231C230.908 273.385 226.732 273.984 222.489 275.709C218.287 277.416 214.022 280.22 210.52 284.848C207.017 289.478 204.048 296.236 202.904 306.198C201.09 321.999 205.025 338.098 213.798 351.431C219.209 359.654 227.189 368.24 236.893 372.574C238.779 373.416 240.751 374.108 242.81 374.604C244.067 368.541 247.729 363.106 253.099 359.701L260.54 371.435C259.277 372.236 258.252 373.32 257.518 374.569C261.797 373.551 266.346 371.62 271.168 368.521L272.013 367.962C280.655 362.076 286.408 352.924 287.138 342.902L287.175 342.3C287.245 340.93 287.194 339.798 287.046 338.925L298.46 336.982L298.526 337.401C298.838 339.499 298.837 341.682 298.687 343.742C297.857 355.137 292.421 365.347 284.366 372.866L287.5 371.798C291.637 383.925 285.161 397.113 273.032 401.25L273.031 401.249C267.704 403.066 262.174 402.835 257.296 400.978C258.334 411.844 258.652 421.32 258.139 431.522C257.371 446.806 254.747 463.546 250.115 488.875L238.724 486.793C243.357 461.46 245.848 445.388 246.575 430.941C247.248 417.554 246.411 405.407 244.198 388.398C243.974 387.873 243.768 387.335 243.581 386.786L243.58 386.785C243.551 386.702 243.524 386.618 243.497 386.535C239.538 385.913 235.753 384.746 232.171 383.147C225.062 379.972 218.926 375.183 213.841 369.951C211.085 372.479 208.449 374.895 206.008 377.123L203.192 379.693L199.717 378.122C184.545 371.256 166.842 356.141 134.893 356.033C97.6648 355.907 75.8812 340.708 63.7076 321.807C51.7992 303.318 49.5297 282.002 49.5709 269.84C49.6195 255.501 52.333 241.886 57.235 229.275L57.7164 228.057C52.7418 229.671 47.1182 229.138 42.4488 226.124L42.0719 225.875C32.0686 219.053 31.4942 204.382 41.1402 196.909C44.0402 194.662 47.4669 192.309 51.3297 190.188C41.132 184.874 35.8377 176.317 33.9029 167.634C31.6664 157.597 36.4463 147.094 46.0934 142.726C57.3745 137.618 70.6289 142.944 75.2623 154.41H75.2643L75.3551 154.637C79.4595 164.883 83.6661 171.422 87.1422 175.555C92.5562 116.27 139.538 69.0683 198.622 63.2194C205.719 58.5199 213.9 53.7169 222.923 49.4509ZM274.831 379.848C269.45 382.974 264.212 384.988 259.16 386.069C261.59 388.352 265.169 389.251 268.545 388.099L268.546 388.098C272.228 386.842 274.61 383.506 274.831 379.848ZM335.356 63.655C296.995 38.3319 258.014 45.6681 227.872 59.9186C212.808 67.0408 200.155 75.8149 191.254 82.8317C186.811 86.3334 183.324 89.3806 180.962 91.5387C179.781 92.617 178.883 93.4732 178.288 94.0505C177.99 94.3388 177.768 94.5583 177.625 94.7009C177.554 94.7716 177.502 94.824 177.47 94.8561L177.432 94.8942C177.43 94.8915 177.319 94.7785 173.296 90.8444C169.156 86.7968 169.159 86.7939 169.161 86.7917L169.184 86.7682C169.199 86.7536 169.218 86.7333 169.243 86.7087C169.292 86.6589 169.362 86.5878 169.452 86.4987C169.631 86.3201 169.891 86.0638 170.227 85.738C170.9 85.0854 171.882 84.1505 173.153 82.9899C174.018 82.1997 175.018 81.3045 176.145 80.321L177.315 79.3083C131.61 93.5983 98.3709 136.195 98.1998 186.63C98.1982 187.096 98.1998 187.562 98.2037 188.027L95.1803 188.052L95.0865 190.942L96.3629 192.31C95.9047 192.738 95.4504 193.169 94.9996 193.602L94.9947 193.783C94.9213 193.796 94.8473 193.807 94.774 193.82C74.0385 213.856 61.2495 240.243 61.149 269.88C61.1115 280.948 63.243 299.704 73.442 315.539C83.3762 330.962 101.408 344.34 134.932 344.454C167.168 344.563 188.33 359.149 201.121 365.9C202.813 364.352 204.575 362.733 206.39 361.068C205.589 359.965 204.833 358.872 204.126 357.797C193.891 342.242 189.27 323.43 191.401 304.876C192.742 293.202 196.339 284.399 201.287 277.861C206.235 271.321 212.307 267.347 218.129 264.981C221.305 263.691 224.407 262.879 227.23 262.375C226.444 261.461 225.694 260.573 224.984 259.715L233.901 252.33C240.617 260.438 249.462 269.773 259.83 274.221C264.888 276.391 270.201 277.347 275.814 276.492C279.842 275.878 284.245 274.298 289.002 271.277C288.041 270.419 287.016 269.456 285.963 268.389C282.333 264.711 278.191 259.651 275.171 253.377L270.864 255.854L265.091 245.816L275.311 239.938C284.798 228.367 290.508 213.594 290.563 197.464C290.62 180.552 284.451 165.082 274.202 153.211L273.711 152.648C272.321 153.065 271.102 153.435 270.072 153.743C268.84 154.111 267.878 154.398 267.225 154.592C266.899 154.689 266.649 154.763 266.481 154.813C266.397 154.838 266.332 154.858 266.29 154.871C266.269 154.877 266.253 154.881 266.242 154.884C266.237 154.886 266.232 154.887 266.229 154.887L266.226 154.888C266.222 154.876 266.145 154.616 264.58 149.34C263.008 144.041 262.937 143.8 262.934 143.789L262.936 143.788C262.939 143.787 262.943 143.785 262.948 143.784C262.958 143.781 262.975 143.776 262.996 143.77C263.038 143.758 263.101 143.739 263.183 143.715C263.349 143.665 263.597 143.591 263.921 143.495C264.57 143.302 265.527 143.016 266.754 142.649C269.211 141.915 272.754 140.852 277.097 139.54C285.785 136.915 297.671 133.295 310.467 129.309C333.151 122.243 358.457 114.099 373.962 108.321C365.57 90.7696 352.668 75.083 335.356 63.655ZM460.225 266.154C456.451 265.389 451.788 266.213 447.481 268.946C444.215 271.019 441.516 274.881 439.079 280.526C436.644 286.166 434.862 292.59 432.789 299.301C431.215 304.396 429.433 309.794 427.005 314.393C431.913 312.091 437.132 307.452 441.071 298.169L441.034 298.141C447.448 289.439 456.964 286.948 464.082 286.443C466.405 286.278 468.566 286.316 470.426 286.441C470.43 286.126 470.434 285.802 470.432 285.471C470.413 281.386 469.94 276.755 468.503 273.167L468.487 273.125C466.856 269.084 463.839 266.887 460.225 266.154ZM460.27 298.704C456.842 299.554 453.615 301.181 451.142 304.028C451.086 304.151 451.029 304.273 450.972 304.395C451.208 304.791 451.469 305.23 451.758 305.716C454.668 310.616 454.717 310.691 454.72 310.691L454.735 310.682C454.741 310.679 454.747 310.675 454.752 310.672C454.761 310.666 454.769 310.66 454.775 310.657C454.786 310.65 454.79 310.648 454.786 310.651C454.777 310.657 454.737 310.682 454.673 310.727C454.544 310.818 454.32 310.985 454.039 311.227C453.983 311.275 453.924 311.326 453.865 311.38C455.953 311.747 457.157 311.51 457.84 311.261C458.735 310.935 459.475 310.365 460.462 309.289L460.737 308.982C460.641 305.233 460.487 301.709 460.27 298.704ZM440.237 202.016C448.119 215.554 454.94 230.567 459.673 246.941L478.031 228.295L440.237 202.016ZM387.483 197.122C385.018 197.445 382.59 197.974 380.229 198.652C378.059 199.276 375.962 200.021 373.968 200.836C375.11 207.735 378.361 215.312 383.833 222.289C390.264 230.489 398.233 235.909 405.679 238.225C413.153 240.55 419.505 239.633 423.796 236.266L424.193 235.942C428.236 232.525 430.479 226.705 430.016 219.136C429.874 216.813 429.472 214.379 428.81 211.888L424.039 215.128L423.846 214.85C424.901 223.039 417.764 226.587 412.224 227.104C404.75 227.801 397.348 224.741 392.085 219.39C385.335 212.53 384.99 205.361 385.81 200.694C386.032 199.431 386.566 198.277 387.328 197.312L387.483 197.122ZM354.657 127.302C341.77 131.593 327.3 136.193 313.911 140.364C303.507 143.605 293.704 146.602 285.726 149.023C296.07 162.429 302.204 179.259 302.142 197.503C302.105 208.363 299.874 218.706 295.874 228.114L336.368 204.83C335.817 203.889 335.676 203.034 335.635 202.774C335.577 202.401 335.566 202.094 335.564 201.928C335.086 168.678 346.279 146.677 363.95 138.55L364.352 138.373C365.64 137.829 366.949 137.505 368.25 137.376C367.339 136.649 366.459 135.955 365.612 135.297C361.706 132.261 358.509 129.961 356.304 128.43C355.671 127.99 355.119 127.614 354.657 127.302ZM70.2623 195.285C61.7818 197.01 54.2003 201.437 48.2301 206.062C44.8737 208.663 45.0087 213.862 48.5953 216.308L48.858 216.477C51.5986 218.143 55.3869 217.425 57.3394 214.75C62.3197 207.926 69.0835 200.861 74.5689 195.514C73.091 195.478 71.6557 195.402 70.2623 195.285ZM397.895 178.185C390.422 175.861 384.071 176.779 379.778 180.146C376.37 182.82 374.154 187.123 373.625 192.694C375.073 192.165 376.566 191.674 378.097 191.234C386.054 188.948 395.226 187.998 404.459 190.633C412.306 192.874 419.925 197.628 426.724 205.847C425.043 201.899 422.722 197.921 419.743 194.122C413.311 185.922 405.341 180.501 397.895 178.185ZM384.118 151.067C384.544 156.481 382.043 163.204 375.013 164.842L375.011 164.843C371.107 165.752 367.331 168.304 363.739 172.192C360.163 176.062 357.075 180.926 354.522 185.806C352.305 190.046 350.563 194.157 349.296 197.396L362.303 189.917C363.354 182.519 366.628 175.744 372.631 171.035L373.015 170.74C380.624 164.995 390.326 164.173 399.588 166.627C398.144 165.052 396.702 163.52 395.269 162.029C391.933 158.559 388.646 155.326 385.471 152.335L384.118 151.067ZM64.5387 158.774C62.3763 153.383 56.1541 150.881 50.8697 153.273C46.4931 155.255 44.0924 160.127 45.2037 165.116C46.4905 170.891 49.8878 176.415 56.7701 179.968C60.0704 181.672 64.3176 182.994 69.7213 183.599C72.4621 183.139 75.3004 182.898 78.2203 182.936C73.8523 177.725 69.0755 170.095 64.608 158.943L64.5904 158.901C64.5752 158.862 64.5673 158.842 64.5611 158.827L64.5387 158.774ZM370.855 149.286C370.108 148.871 369.448 148.85 368.978 148.997L368.789 149.07C362.674 151.882 356.862 157.7 352.8 167.155C353.581 166.188 354.392 165.244 355.234 164.334C359.722 159.477 365.392 155.214 372.314 153.583C372.333 153.556 372.361 153.514 372.392 153.452C372.554 153.125 372.693 152.491 372.542 151.713V151.708L372.499 151.492C372.317 150.568 371.705 149.758 370.855 149.286Z" fill="#003300"/>
<path d="M326.654 420.626C330.125 420.626 332.949 423.451 332.949 426.923C332.949 430.392 330.125 433.215 326.654 433.216C323.182 433.215 320.36 430.392 320.36 426.923C320.36 423.451 323.182 420.626 326.654 420.626Z" fill="#003300"/>
<path d="M354.303 420.626C357.775 420.626 360.596 423.451 360.596 426.923C360.596 430.392 357.775 433.215 354.303 433.216C350.832 433.215 348.011 430.392 348.011 426.923C348.011 423.451 350.832 420.626 354.303 420.626Z" fill="#003300"/>
<path d="M312.829 392.978C316.3 392.979 319.121 395.8 319.121 399.271C319.121 402.741 316.3 405.564 312.829 405.564C309.359 405.564 306.536 402.741 306.536 399.271C306.536 395.799 309.359 392.978 312.829 392.978Z" fill="#003300"/>
<path d="M299.003 365.325C302.474 365.325 305.295 368.148 305.296 371.62C305.295 375.089 302.474 377.914 299.003 377.914C295.533 377.914 292.71 375.089 292.71 371.62C292.71 368.148 295.533 365.325 299.003 365.325Z" fill="#003300"/>
<path d="M354.303 365.325C357.775 365.325 360.596 368.148 360.596 371.62C360.596 375.089 357.775 377.914 354.303 377.914C350.832 377.914 348.012 375.089 348.011 371.62C348.011 368.148 350.832 365.325 354.303 365.325Z" fill="#003300"/>
<path d="M381.957 365.325C385.428 365.325 388.249 368.148 388.25 371.62C388.249 375.089 385.428 377.914 381.957 377.914C378.485 377.914 375.665 375.089 375.665 371.62C375.665 368.148 378.485 365.325 381.957 365.325Z" fill="#003300"/>
<path d="M409.611 365.325C413.08 365.325 415.901 368.148 415.901 371.62C415.901 375.089 413.08 377.913 409.611 377.914C406.137 377.914 403.314 375.089 403.314 371.62C403.314 368.148 406.137 365.325 409.611 365.325Z" fill="#003300"/>
<path d="M437.258 365.325C440.73 365.325 443.552 368.148 443.552 371.62C443.552 375.089 440.73 377.913 437.258 377.914C433.787 377.914 430.966 375.089 430.965 371.62C430.966 368.148 433.787 365.325 437.258 365.325Z" fill="#003300"/>
<path d="M312.829 337.672C316.3 337.672 319.121 340.497 319.121 343.968C319.12 347.438 316.3 350.26 312.829 350.26C309.359 350.26 306.536 347.438 306.536 343.968C306.536 340.497 309.359 337.672 312.829 337.672Z" fill="#003300"/>
<path d="M340.482 337.672C343.952 337.672 346.771 340.497 346.771 343.968C346.771 347.438 343.951 350.26 340.482 350.26C337.009 350.26 334.185 347.438 334.185 343.968C334.185 340.497 337.008 337.672 340.482 337.672Z" fill="#003300"/>
<path d="M368.129 337.672C371.601 337.672 374.424 340.497 374.424 343.968C374.424 347.438 371.601 350.26 368.129 350.26C364.658 350.26 361.837 347.438 361.837 343.968C361.837 340.497 364.658 337.672 368.129 337.672Z" fill="#003300"/>
<path d="M395.783 337.672C399.254 337.672 402.078 340.497 402.078 343.968C402.077 347.438 399.254 350.26 395.783 350.26C392.311 350.26 389.49 347.438 389.49 343.968C389.49 340.497 392.311 337.672 395.783 337.672Z" fill="#003300"/>
<path d="M423.432 337.672C426.904 337.672 429.725 340.497 429.725 343.968C429.725 347.438 426.904 350.26 423.432 350.26C419.961 350.26 417.141 347.438 417.14 343.968C417.14 340.497 419.961 337.672 423.432 337.672Z" fill="#003300"/>
<path d="M451.086 337.672C454.557 337.672 457.378 340.497 457.379 343.968C457.378 347.438 454.557 350.26 451.086 350.26C447.614 350.26 444.794 347.438 444.794 343.968C444.794 340.497 447.614 337.672 451.086 337.672Z" fill="#003300"/>
<path d="M231.815 291.289C232.156 291.952 232.816 293.238 234.093 295.735C236.618 300.668 236.729 300.878 236.737 300.885L236.743 300.883C236.746 300.882 236.75 300.879 236.754 300.878C236.761 300.874 236.768 300.87 236.774 300.867C236.786 300.861 236.797 300.854 236.804 300.85C236.815 300.844 236.824 300.84 236.826 300.839L236.73 300.896C236.608 300.973 236.378 301.125 236.076 301.359C235.469 301.83 234.586 302.623 233.683 303.804C232.877 304.859 232.009 306.28 231.313 308.151C236.628 306.877 241.449 306.737 245.806 307.543C252.661 308.81 257.777 312.303 261.453 316.234C265.08 320.113 267.357 324.461 268.719 327.731C269.409 329.386 269.888 330.819 270.198 331.859C270.353 332.38 270.468 332.807 270.546 333.118C270.586 333.273 270.616 333.4 270.638 333.496C270.649 333.544 270.659 333.584 270.667 333.616C270.67 333.632 270.674 333.646 270.676 333.658C270.678 333.664 270.679 333.67 270.68 333.674L270.681 333.681L259.366 336.139L259.367 336.144L259.365 336.136C259.358 336.107 259.345 336.05 259.324 335.966C259.281 335.798 259.208 335.526 259.101 335.169C258.887 334.452 258.541 333.408 258.032 332.185C256.996 329.7 255.374 326.686 252.996 324.143C250.666 321.652 247.668 319.663 243.702 318.929C240.379 318.315 235.967 318.509 230.186 320.549C230.846 326.236 232.94 333.587 237.646 342.916L227.308 348.131C220.887 335.402 218.417 325.097 218.363 316.77C218.303 307.507 221.239 301.017 224.485 296.771C226.08 294.686 227.702 293.202 228.975 292.214C229.613 291.719 230.167 291.344 230.593 291.078C230.806 290.945 230.988 290.837 231.133 290.756C231.206 290.715 231.271 290.68 231.325 290.651C231.351 290.637 231.376 290.623 231.398 290.612C231.409 290.606 231.419 290.6 231.428 290.595C231.433 290.593 231.439 290.591 231.443 290.589C231.445 290.587 231.45 290.585 231.45 290.585L231.815 291.289Z" fill="#003300"/>
<path d="M299.003 310.022C302.474 310.022 305.295 312.845 305.296 316.316C305.295 319.786 302.474 322.611 299.003 322.611C295.533 322.611 292.71 319.786 292.71 316.316C292.71 312.845 295.533 310.022 299.003 310.022Z" fill="#003300"/>
<path d="M326.654 310.022C330.125 310.022 332.948 312.845 332.949 316.316C332.949 319.786 330.125 322.611 326.654 322.611C323.182 322.611 320.36 319.786 320.36 316.316C320.36 312.845 323.182 310.022 326.654 310.022Z" fill="#003300"/>
<path d="M348.014 316.438C351.913 317.82 355.798 318.887 359.608 319.694C358.49 321.445 356.532 322.611 354.303 322.611C350.873 322.611 348.08 319.852 348.014 316.438Z" fill="#003300"/>
<path d="M384.96 321.846C384.067 322.333 383.044 322.611 381.957 322.611C380.896 322.611 379.897 322.346 379.02 321.881C381.071 321.923 383.056 321.906 384.96 321.846Z" fill="#003300"/>
<path d="M307.363 285.549C309.736 288.861 312.217 291.886 314.787 294.644C314.17 294.847 313.512 294.958 312.829 294.958C309.359 294.958 306.536 292.135 306.536 288.665C306.536 287.532 306.837 286.468 307.363 285.549Z" fill="#003300"/>
</svg>
